<svg xmlns="http://www.w3.org/2000/svg" xmlns:xlink="http://www.w3.org/1999/xlink" xmlns:lucid="lucid" width="440" height="380"><g transform="translate(20 20)" lucid:page-tab-id="0_0"><path d="M0 0h400v204L200 340 0 204z" fill="#c7e8ac"/><path d="M50 50.1h300v121.2l-150 80.8-150-80.8z" stroke="#fff" stroke-width="10" fill="#7ab648"/><use xlink:href="#a" transform="matrix(1,0,0,1,55,55.111111111111114) translate(43 128)"/><defs><path fill="#fff" d="M160-131c35 5 61 23 61 61C221 17 115-2 30 0v-248c76 3 177-17 177 60 0 33-19 50-47 57zm-97-11c50-1 110 9 110-42 0-47-63-36-110-37v79zm0 115c55-2 124 14 124-45 0-56-70-42-124-44v89" id="b"/><path fill="#fff" d="M209 0H11v-25l151-195H24v-28h176v25L50-27h159V0" id="c"/><g id="a"><use transform="matrix(0.4444444444444444,0,0,0.4444444444444444,0,0)" xlink:href="#b"/><use transform="matrix(0.4444444444444444,0,0,0.4444444444444444,106.66666666666666,0)" xlink:href="#c"/></g></defs></g></svg>